<svg xmlns="http://www.w3.org/2000/svg" width="24" height="24" viewBox="0 0 24 24" fill="none" stroke="currentColor" stroke-width="2" stroke-linecap="round" stroke-linejoin="round">
  <g transform="translate(0,24) scale(0.0416667,-0.0416667)" stroke="currentColor" fill="none" stroke-width="2" stroke-linecap="round" stroke-linejoin="round">
    <path d="M2565 3713c-415-57-758-247-932-515-24-37-51-68-60-68-8 0-42-14-75-32-66-35-138-109-173-178-91-182-36-417 125-535 28-20 50-43 50-51 0-25 39-136 68-193 41-83 122-165 200-203l67-33 950 0 950 0 58 27c115 54 224 201 262 353 11 41 24 67 43 83 113 97 154 160 178 274 26 122-2 243-78 346-42 56-142 129-191 139-19 4-37 20-55 47-180 283-489 463-907 531-84 14-400 19-480 8z m431-108c407-54 728-241 880-513 17-31 31-41 84-59 150-52 233-185 216-345-11-105-79-203-175-249-93-45-236-23-301 47-36 37-65 31-119-25-93-99-219-90-298 21-46 64-67 63-123-3-46-55-105-88-156-89-48 0-125 45-162 95-44 61-67 60-122-6-98-116-212-116-310 0-55 65-78 67-121 6-33-46-113-95-153-95-50 0-102 24-151 71-29 27-60 49-70 49-9 0-31-11-47-25-62-52-108-69-188-69-64 0-83 4-129 29-54 30-104 82-137 145-29 55-27 219 4 281 42 84 106 136 202 165 43 13 51 20 86 81 46 79 162 200 254 265 265 187 665 273 1036 223z m-1036-1260c119-80 235-74 365 20 19 13 25 12 70-20 57-41 101-55 170-55 71 0 118 15 171 56l47 36 26-21c114-91 263-95 372-9l37 28 52-35c65-44 119-58 195-52 60 4 115 27 166 68l27 21 45-26c54-32 169-58 216-49 33 6 34 5 27-23-14-57-62-138-111-189-92-94-1-86-1050-86-766 0-930 3-957 14-58 25-132 101-171 177-52 102-51 107 26 108 63 0 156 26 199 56 12 9 23 16 24 16 1 0 25-16 54-35z"/>
    <path d="M2370 3414c-52-17-163-80-181-102-36-47-2-121 62-137 49-12 113 64 154 184 8 24 15 47 15 52 0 10-25 11-50 3z"/>
    <path d="M2750 3373c-37-78-50-123-50-169 0-34 5-47 26-63 59-47 144-10 144 62 0 59-63 217-86 217-6 0-22-21-34-47z"/>
    <path d="M3150 3404c1-28 45-130 75-174 37-54 75-68 117-43 17 10 37 32 44 49 22 53-6 91-96 136-41 21-90 40-107 44-28 5-33 4-33-12z"/>
  </g>
</svg>
