<?xml version="1.0" standalone="no"?>
<!DOCTYPE svg PUBLIC "-//W3C//DTD SVG 20010904//EN"
 "http://www.w3.org/TR/2001/REC-SVG-20010904/DTD/svg10.dtd">
<svg version="1.0" xmlns="http://www.w3.org/2000/svg"
 width="30.000000pt" height="16.000000pt" viewBox="0 0 30.000000 16.000000"
 preserveAspectRatio="xMidYMid meet">

<g transform="translate(0.000000,16.000000) scale(0.100000,-0.100000)"
fill="currentColor" stroke="none">
<path d="M3 151 c6 -27 34 -36 69 -23 43 16 52 5 59 -71 l6 -62 1 57 c2 53 4
58 36 77 37 23 76 27 109 10 21 -10 21 -10 3 5 -28 23 -76 20 -116 -8 -34 -23
-34 -23 -50 -3 -14 16 -20 18 -38 8 -30 -16 -59 -14 -72 7 -7 10 -10 11 -7 3z"/>
<path d="M187 102 c-22 -24 -21 -65 1 -85 24 -22 76 -22 93 1 11 14 11 15 -1
5 -18 -16 -72 -17 -88 -1 -26 26 -13 38 38 38 36 0 52 4 56 15 16 41 -67 63
-99 27z m91 -14 c3 -15 -4 -18 -47 -18 -28 0 -51 4 -51 8 0 34 92 43 98 10z"/>
</g>
</svg>
