<?xml version="1.0" standalone="no"?>
<!DOCTYPE svg PUBLIC "-//W3C//DTD SVG 20010904//EN"
 "http://www.w3.org/TR/2001/REC-SVG-20010904/DTD/svg10.dtd">
<svg version="1.0" xmlns="http://www.w3.org/2000/svg"
 width="64.000000pt" height="32.000000pt" viewBox="0 0 64.000000 32.000000"
 preserveAspectRatio="xMidYMid meet">

<g transform="translate(0.000000,32.000000) scale(0.100000,-0.100000)"
fill="currentColor" stroke="none">
<path d="M255 183 c-54 -137 -56 -144 -39 -150 6 -2 19 17 29 42 l17 46 22
-20 c12 -11 42 -27 66 -36 25 -9 48 -22 53 -30 10 -19 37 -19 37 -1 0 18 -44
50 -92 65 -20 7 -42 18 -48 26 -10 12 -5 18 31 33 24 11 54 22 67 26 12 4 22
13 22 20 0 14 -91 106 -105 106 -6 0 -32 -57 -60 -127z m115 27 c0 -3 -20 -13
-44 -22 l-44 -16 15 36 c8 20 17 41 20 45 5 8 53 -31 53 -43z"/>
<path d="M100 242 c-66 -29 -86 -43 -88 -60 -3 -19 7 -27 65 -53 113 -51 113
-51 113 -28 0 16 -15 27 -60 46 -33 15 -60 29 -60 33 0 4 27 19 60 34 44 20
60 32 60 47 0 10 -1 19 -2 19 -2 0 -41 -17 -88 -38z"/>
<path d="M450 260 c0 -13 17 -26 60 -46 33 -15 60 -30 60 -34 0 -4 -27 -18
-60 -33 -45 -19 -60 -30 -60 -46 0 -23 0 -23 113 28 91 41 91 61 0 103 -110
49 -113 50 -113 28z"/>
</g>
</svg>
